<svg width="25" height="24" viewBox="0 0 25 24" fill="none" xmlns="http://www.w3.org/2000/svg">
<path fill-rule="evenodd" clip-rule="evenodd" d="M24.1793 12.2728C24.1793 11.4218 24.1031 10.6037 23.9615 9.81821H12.6807V14.46H19.1269C18.8492 15.96 18.0053 17.2309 16.7368 18.0818V21.0928H20.6077C22.8726 19.0037 24.1793 15.9273 24.1793 12.2728Z" fill="#4285F4"/>
<path fill-rule="evenodd" clip-rule="evenodd" d="M12.6803 24C15.9143 24 18.6256 22.9255 20.6074 21.0927L16.7364 18.0818C15.6638 18.8018 14.2919 19.2273 12.6803 19.2273C9.56065 19.2273 6.9201 17.1164 5.97822 14.28H1.97656V17.3891C3.94744 21.3109 7.9981 24 12.6803 24Z" fill="#34A853"/>
<path fill-rule="evenodd" clip-rule="evenodd" d="M5.97877 14.28C5.73922 13.56 5.60311 12.7909 5.60311 12C5.60311 11.2091 5.73922 10.44 5.97877 9.72002V6.61093H1.97712C1.1659 8.23093 0.703125 10.0637 0.703125 12C0.703125 13.9364 1.1659 15.7691 1.97712 17.3891L5.97877 14.28Z" fill="#FBBC05"/>
<path fill-rule="evenodd" clip-rule="evenodd" d="M12.6803 4.77273C14.4389 4.77273 16.0177 5.37818 17.2591 6.56727L20.6945 3.12545C18.6202 1.18909 15.9088 0 12.6803 0C7.9981 0 3.94744 2.68909 1.97656 6.61091L5.97822 9.72C6.9201 6.88364 9.56065 4.77273 12.6803 4.77273Z" fill="#EA4335"/>
</svg>
