<svg width="36" height="36" viewBox="0 0 36 36" fill="none" xmlns="http://www.w3.org/2000/svg">
<path d="M25.2 36C22.2 36 19.65 34.95 17.55 32.85C15.45 30.75 14.4 28.2 14.4 25.2C14.4 22.2 15.45 19.65 17.55 17.55C19.65 15.45 22.2 14.4 25.2 14.4C28.2 14.4 30.75 15.45 32.85 17.55C34.95 19.65 36 22.2 36 25.2C36 28.2 34.95 30.75 32.85 32.85C30.75 34.95 28.2 36 25.2 36ZM25.2 32.4C27.18 32.4 28.875 31.695 30.285 30.285C31.695 28.875 32.4 27.18 32.4 25.2C32.4 23.22 31.695 21.525 30.285 20.115C28.875 18.705 27.18 18 25.2 18C23.22 18 21.525 18.705 20.115 20.115C18.705 21.525 18 23.22 18 25.2C18 27.18 18.705 28.875 20.115 30.285C21.525 31.695 23.22 32.4 25.2 32.4ZM3.6 32.4C2.61 32.4 1.7625 32.0475 1.0575 31.3425C0.3525 30.6375 0 29.79 0 28.8V15.12C0 14.88 0.0225 14.64 0.0675 14.4C0.1125 14.16 0.18 13.92 0.27 13.68L3.87 5.4H3.6C3.09 5.4 2.6625 5.2275 2.3175 4.8825C1.9725 4.5375 1.8 4.11 1.8 3.6V1.8C1.8 1.29 1.9725 0.8625 2.3175 0.5175C2.6625 0.1725 3.09 0 3.6 0H16.2C16.71 0 17.1375 0.1725 17.4825 0.5175C17.8275 0.8625 18 1.29 18 1.8V3.6C18 4.11 17.8275 4.5375 17.4825 4.8825C17.1375 5.2275 16.71 5.4 16.2 5.4H15.93L18.9 12.24C18.33 12.54 17.79 12.855 17.28 13.185C16.77 13.515 16.29 13.89 15.84 14.31L12.06 5.4H7.74L3.6 15.12V28.8H11.25C11.4 29.43 11.6025 30.0525 11.8575 30.6675C12.1125 31.2825 12.42 31.86 12.78 32.4H3.6ZM25.2 12.6C23.94 12.6 22.875 12.165 22.005 11.295C21.135 10.425 20.7 9.36 20.7 8.1C20.7 6.84 21.135 5.775 22.005 4.905C22.875 4.035 23.94 3.6 25.2 3.6V12.6C25.2 11.34 25.635 10.275 26.505 9.405C27.375 8.535 28.44 8.1 29.7 8.1C30.96 8.1 32.025 8.535 32.895 9.405C33.765 10.275 34.2 11.34 34.2 12.6H25.2Z" fill="white"/>
</svg>
